HIERARCHY
ROOT Hips
{
  OFFSET 46.1828 96.0692 -2.60668
  CHANNELS 6 Xposition Yposition Zposition Zrotation Xrotation Yrotation
  JOINT spine
  {
    OFFSET 0 8.13249 0.467659
    CHANNELS 3 Zrotation Xrotation Yrotation
    JOINT spine1
    {
      OFFSET 0 10.3498 0
      CHANNELS 3 Zrotation Xrotation Yrotation
      JOINT spine2
      {
        OFFSET 0 9.91699 0
        CHANNELS 3 Zrotation Xrotation Yrotation
        JOINT Neck
        {
          OFFSET 0 25.461 1.2139
          CHANNELS 3 Zrotation Xrotation Yrotation
          JOINT Head
          {
            OFFSET 0 7.69245 0
            CHANNELS 3 Zrotation Xrotation Yrotation
            End Site
            {
              OFFSET 0 18.62 -6.14063
            }
          }
        }
        JOINT RightShoulder
        {
          OFFSET -4.17575 10.7096 -0.581445
          CHANNELS 3 Zrotation Xrotation Yrotation
          JOINT RightArm
          {
            OFFSET 0 14.0466 0
            CHANNELS 3 Zrotation Xrotation Yrotation
            JOINT RightArmRoll
            {
              OFFSET 0 7.09099 0
              CHANNELS 3 Zrotation Xrotation Yrotation
              JOINT RightForeArm
              {
                OFFSET 0 20.6535 0
                CHANNELS 3 Zrotation Xrotation Yrotation
                JOINT RightForeArmRoll
                {
                  OFFSET 0 7.95718 0
                  CHANNELS 3 Zrotation Xrotation Yrotation
                  JOINT RightHand
                  {
                    OFFSET 0 15.9683 0
                    CHANNELS 3 Zrotation Xrotation Yrotation
                    End Site
                    {
                      OFFSET 0 0 0
                    }
                  }
                }
              }
            }
          }
        }
        JOINT LeftShoulder
        {
          OFFSET 4.17575 10.7096 -0.581445
          CHANNELS 3 Zrotation Xrotation Yrotation
          JOINT LeftArm
          {
            OFFSET 0 14.0466 0
            CHANNELS 3 Zrotation Xrotation Yrotation
            JOINT LeftArmRoll
            {
              OFFSET 0 7.09098 0
              CHANNELS 3 Zrotation Xrotation Yrotation
              JOINT LeftForeArm
              {
                OFFSET 0 20.6535 0
                CHANNELS 3 Zrotation Xrotation Yrotation
                JOINT LeftForeArmRoll
                {
                  OFFSET 0 7.95718 0
                  CHANNELS 3 Zrotation Xrotation Yrotation
                  JOINT LeftHand
                  {
                    OFFSET 0 15.9683 0
                    CHANNELS 3 Zrotation Xrotation Yrotation
                    End Site
                    {
                      OFFSET 0 0 0
                    }
                  }
                }
              }
            }
          }
        }
      }
    }
  }
  JOINT RightUpLeg
  {
    OFFSET -7.20834 -1.32182 -1.10884
    CHANNELS 3 Zrotation Xrotation Yrotation
    JOINT RightUpLegRoll
    {
      OFFSET 0 18.7238 0
      CHANNELS 3 Zrotation Xrotation Yrotation
      JOINT RightLeg
      {
        OFFSET 0 -23.1866 0
        CHANNELS 3 Zrotation Xrotation Yrotation
        JOINT RightLegRoll
        {
          OFFSET 0 23.2624 0
          CHANNELS 3 Zrotation Xrotation Yrotation
          JOINT RightFoot
          {
            OFFSET 0 19.3621 0
            CHANNELS 3 Zrotation Xrotation Yrotation
            JOINT RightToeBase
            {
              OFFSET 0 16.1857 0
              CHANNELS 3 Zrotation Xrotation Yrotation
              End Site
              {
                OFFSET 0.00686052 7.83862 -0.903522
              }
            }
          }
        }
      }
    }
  }
  JOINT LeftUpLeg
  {
    OFFSET 7.20834 -1.32182 -1.10884
    CHANNELS 3 Zrotation Xrotation Yrotation
    JOINT LeftUpLegRoll
    {
      OFFSET 0 18.7239 0
      CHANNELS 3 Zrotation Xrotation Yrotation
      JOINT LeftLeg
      {
        OFFSET 0 23.1865 0
        CHANNELS 3 Zrotation Xrotation Yrotation
        JOINT LeftLegRoll
        {
          OFFSET 0 23.4775 0
          CHANNELS 3 Zrotation Xrotation Yrotation
          JOINT LeftFoot
          {
            OFFSET 0 19.147 0
            CHANNELS 3 Zrotation Xrotation Yrotation
            JOINT LeftToeBase
            {
              OFFSET 0 16.1857 0
              CHANNELS 3 Zrotation Xrotation Yrotation
              End Site
              {
                OFFSET -0.0307459 7.83862 -0.903522
              }
            }
          }
        }
      }
    }
  }
}
MOTION
Frames: 10
Frame Time: 0.00208333
49.1792 86.5986 5.76624 -0.506094 -1.32862 -0.754081 0.397234 -0.376997 0.0552377 0.795423 3.24891 0.0614228 0.795713 4.89389 0.0481237 8.68566 -3.12687 -4.45683 -14.405 7.49903 -3.94239 21.9001 -25.7672 -25.7163 -23.0681 35.2598 129.425 1.02318e-006 -1.9936e-006 -7.9046e-006 -14.1553 50.4542 14.4821 6.27331e-007 2.60694e-006 -3.00089 8.02908 -4.95143 0.697693 -19.948 -22.9765 22.7251 19.0334 33.3209 -123.622 -1.68097e-005 -4.88018e-007 1.33355e-005 12.039 35.8947 -7.74926 1.47675e-005 2.72431e-006 3.0028 -8.02894 -4.95147 -0.697693 160.765 20.7388 7.54969 180 7.01573e-015 179.045 -169.531 46.4722 174.375 -1.26356e-006 7.58213e-007 3.37769 -43.4274 82.1002 49.7297 8.14693 25.4935 -3.19049 -162.079 16.5516 -3.12773 4.5067e-006 -1.99009e-005 -1.349 15.646 -46.1984 7.09961 1.26488e-006 1.23476e-006 -4.97659 47.519 82.4063 -53.1672 -8.18709 27.357 1.24471 
49.1887 86.7994 5.79342 -0.50103 -1.33594 -0.752613 0.395171 -0.398658 0.0569749 0.791275 3.2056 0.0652828 0.791503 4.85058 0.0520572 8.72627 -2.98108 -4.4695 -14.422 7.45021 -3.94396 22.1059 -25.7114 -25.5785 -22.8253 35.5328 128.966 1.02318e-006 -1.9936e-006 -7.9046e-006 -14.0501 50.3292 14.3158 6.27331e-007 2.60694e-006 -3.00088 8.02908 -4.95143 0.697693 -20.0972 -22.8774 22.5524 18.7126 33.5765 -123.116 -1.68097e-005 -4.88018e-007 1.33355e-005 11.9955 35.7376 -7.64599 1.47675e-005 2.72431e-006 3.00281 -8.02894 -4.95147 -0.697693 160.774 20.3892 7.60131 180 7.01571e-015 179.035 -169.904 45.759 174.629 -1.26356e-006 7.58222e-007 3.28231 -41.3805 81.7256 47.4217 8.15103 25.5652 -3.11067 -162.075 16.2611 -3.15652 4.5067e-006 -1.99009e-005 -1.34382 15.3065 -45.5129 6.87927 1.26488e-006 1.2348e-006 -4.80685 44.7715 82.0102 -50.2222 -8.18399 27.4875 1.10566 
49.2049 87.0808 5.77686 -0.494181 -1.34274 -0.748366 0.392315 -0.420945 0.0585614 0.78554 3.16103 0.0689441 0.785707 4.80602 0.0558185 8.7804 -2.83077 -4.48305 -14.4485 7.39966 -3.94474 22.3285 -25.6564 -25.4365 -22.5764 35.8054 128.476 1.02318e-006 -1.9936e-006 -7.9046e-006 -13.938 50.2032 14.141 6.27331e-007 2.60694e-006 -3.00087 8.02908 -4.95143 0.697693 -20.2453 -22.7739 22.3747 18.3793 33.8336 -122.611 -1.68097e-005 -4.88018e-007 1.33355e-005 11.9433 35.5952 -7.54413 1.47675e-005 2.72431e-006 3.00283 -8.02894 -4.95147 -0.697693 160.781 20.0241 7.65682 180 7.01569e-015 179.024 -170.289 45.0081 174.887 -1.26356e-006 7.5823e-007 3.17982 -39.3646 81.3043 45.1263 8.15579 25.6534 -3.01225 -162.072 15.9615 -3.18534 4.5067e-006 -1.99009e-005 -1.33836 14.9569 -44.7964 6.6566 1.26488e-006 1.23485e-006 -4.62545 42.1124 81.562 -47.353 -8.17946 27.642 0.940539 
49.1945 87.3102 5.82353 -0.485762 -1.34914 -0.742076 0.388766 -0.443793 0.0600108 0.778421 3.11535 0.0724207 0.778526 4.76034 0.0594181 8.84575 -2.67514 -4.49733 -14.4825 7.34667 -3.94484 22.5664 -25.6013 -25.2899 -22.3199 36.0774 127.958 1.02318e-006 -1.9936e-006 -7.9046e-006 -13.8199 50.076 13.9587 6.27331e-007 2.60694e-006 -3.00086 8.02908 -4.95143 0.697693 -20.3932 -22.6664 22.1925 18.0335 34.0928 -122.104 -1.68097e-005 -4.88018e-007 1.33355e-005 11.8831 35.4655 -7.44332 1.47675e-005 2.72431e-006 3.00284 -8.02894 -4.95147 -0.697693 160.785 19.646 7.71517 180 7.01567e-015 179.013 -170.68 44.2243 175.145 -1.26356e-006 7.58237e-007 3.07115 -37.4273 80.8394 42.8947 8.16085 25.7548 -2.89878 -162.071 15.6532 -3.21381 4.5067e-006 -1.99009e-005 -1.33269 14.6001 -44.0514 6.43306 1.26488e-006 1.23488e-006 -4.43419 39.5984 81.0657 -44.6186 -8.17323 27.8149 0.755087 
49.1727 87.6607 5.79966 -0.475989 -1.35524 -0.734477 0.384627 -0.467135 0.0613368 0.77012 3.06867 0.0757264 0.770165 4.71367 0.0628664 8.92005 -2.51344 -4.51218 -14.5219 7.29051 -3.94437 22.8176 -25.5455 -25.1384 -22.0546 36.3485 127.415 1.02318e-006 -1.9936e-006 -7.9046e-006 -13.6967 49.9473 13.7701 6.27331e-007 2.60694e-006 -3.00085 8.02908 -4.95143 0.697693 -20.5417 -22.5553 22.0063 17.6752 34.3541 -121.594 -1.68097e-005 -4.88018e-007 1.33355e-005 11.816 35.3467 -7.3432 1.47675e-005 2.72431e-006 3.00285 -8.02894 -4.95147 -0.697693 160.789 19.2573 7.77531 180 7.01564e-015 179.001 -171.073 43.4122 175.4 -1.26355e-006 7.58242e-007 2.95724 -35.6018 80.3349 40.7636 8.16592 25.8663 -2.77386 -162.072 15.337 -3.24154 4.5067e-006 -1.99009e-005 -1.32687 14.2387 -43.2809 6.20995 1.26487e-006 1.23491e-006 -4.23487 37.2655 80.526 -42.0572 -8.16516 28.0005 0.555092 
49.1903 87.8891 5.84004 -0.465078 -1.36118 -0.726303 0.379999 -0.490908 0.0625528 0.760841 3.02114 0.0788751 0.760825 4.66613 0.0661739 9.00099 -2.34488 -4.52745 -14.5647 7.23046 -3.94343 23.0806 -25.4879 -24.9816 -21.7794 36.6186 126.849 1.02318e-006 -1.9936e-006 -7.9046e-006 -13.5692 49.8171 13.5762 6.27331e-007 2.60694e-006 -3.00084 8.02908 -4.95143 0.697693 -20.6915 -22.4411 21.8167 17.3043 34.618 -121.081 -1.68097e-005 -4.88018e-007 1.33355e-005 11.7428 35.2368 -7.24345 1.47675e-005 2.72431e-006 3.00286 -8.02894 -4.95147 -0.697693 160.792 18.8605 7.83621 180 7.01562e-015 178.988 -171.466 42.5763 175.652 -1.26355e-006 7.58245e-007 2.83901 -33.9082 79.7957 38.7568 8.17072 25.9844 -2.64106 -162.074 15.0133 -3.26814 4.5067e-006 -1.99009e-005 -1.32095 13.8752 -42.4876 5.98844 1.26487e-006 1.23494e-006 -4.02931 35.1321 79.949 -39.6897 -8.15524 28.1934 0.346407 
49.0566 88.2925 6.00555 -0.453246 -1.36706 -0.71829 0.374982 -0.515046 0.0636726 0.750786 2.97287 0.0818807 0.750711 4.61787 0.069351 9.08629 -2.16869 -4.54297 -14.609 7.16581 -3.94213 23.3534 -25.4279 -24.8194 -21.493 36.8878 126.265 1.02318e-006 -1.9936e-006 -7.9046e-006 -13.4383 49.6851 13.3783 6.27331e-007 2.60694e-006 -3.00084 8.02908 -4.95143 0.697693 -20.8436 -22.3243 21.6241 16.9206 34.8845 -120.564 -1.68097e-005 -4.88018e-007 1.33355e-005 11.6645 35.1341 -7.14375 1.47675e-005 2.72431e-006 3.00288 -8.02894 -4.95147 -0.697693 160.797 18.4581 7.89682 180 7.01559e-015 178.975 -171.854 41.7214 175.897 -1.26355e-006 7.58247e-007 2.71738 -32.3561 79.227 36.8875 8.17505 26.106 -2.50402 -162.078 14.6826 -3.29323 4.5067e-006 -1.99009e-005 -1.31501 13.512 -41.6742 5.76957 1.26487e-006 1.23495e-006 -3.81929 33.2038 79.3412 -37.5238 -8.14362 28.3878 0.134961 
49.0725 88.5365 6.00325 -0.440711 -1.373 -0.711172 0.369679 -0.539483 0.0647098 0.740158 2.92401 0.0847571 0.740026 4.569 0.0724084 9.17366 -1.9841 -4.5586 -14.6527 7.09581 -3.94058 23.6343 -25.3646 -24.6513 -21.1944 37.1562 125.664 1.02318e-006 -1.9936e-006 -7.9046e-006 -13.3048 49.5513 13.1772 6.27331e-007 2.60694e-006 -3.00083 8.02908 -4.95143 0.697693 -20.9987 -22.2051 21.429 16.5241 35.1538 -120.04 -1.68097e-005 -4.88018e-007 1.33355e-005 11.5821 35.0364 -7.04381 1.47675e-005 2.72431e-006 3.00289 -8.02894 -4.95147 -0.697693 160.803 18.0524 7.95613 180 7.01556e-015 178.962 -172.236 40.8521 176.134 -1.26355e-006 7.58246e-007 2.59329 -30.9472 78.6346 35.1608 8.17875 26.2277 -2.36638 -162.084 14.3456 -3.31642 4.5067e-006 -1.99009e-005 -1.30909 13.1512 -40.8436 5.55429 1.26487e-006 1.23495e-006 -3.60663 31.4764 78.7095 -35.5575 -8.13066 28.5783 -0.0732329 
49.0539 88.8625 5.99776 -0.427688 -1.37911 -0.705684 0.364189 -0.564155 0.0656778 0.72916 2.87467 0.0875181 0.728971 4.51967 0.0753564 9.2608 -1.79033 -4.57418 -14.6939 7.01977 -3.93888 23.9216 -25.2971 -24.477 -20.8827 37.4242 125.051 1.02318e-006 -1.9936e-006 -7.9046e-006 -13.1695 49.4154 12.9741 6.27331e-007 2.60694e-006 -3.00082 8.02908 -4.95143 0.697693 -21.1577 -22.0843 21.2319 16.1145 35.426 -119.51 -1.68097e-005 -4.88018e-007 1.33355e-005 11.4966 34.9421 -6.94333 1.47675e-005 2.72431e-006 3.0029 -8.02894 -4.95147 -0.697693 160.812 17.6461 8.01311 180 7.01553e-015 178.949 -172.608 39.9731 176.362 -1.26355e-006 7.58244e-007 2.46766 -29.6773 78.0243 33.5761 8.18175 26.3464 -2.23182 -162.092 14.0028 -3.33733 4.5067e-006 -1.99009e-005 -1.30325 12.795 -39.9985 5.3434 1.26487e-006 1.23495e-006 -3.39314 29.9397 78.0612 -33.7829 -8.11686 28.7594 -0.272073 
49.0383 89.1557 6.0548 -0.414397 -1.38552 -0.70256 0.358616 -0.588996 0.0665904 0.717996 2.825 0.0901777 0.717751 4.47 0.0782056 9.34542 -1.58661 -4.58956 -14.7305 6.93694 -3.93714 24.2133 -25.2246 -24.2963 -20.5568 37.6922 124.428 1.02318e-006 -1.9936e-006 -7.9046e-006 -13.0332 49.2774 12.7701 6.27331e-007 2.60694e-006 -3.00081 8.02908 -4.95143 0.697693 -21.3214 -21.962 21.0334 15.6916 35.7011 -118.971 -1.68097e-005 -4.88018e-007 1.33355e-005 11.409 34.849 -6.84204 1.47675e-005 2.72431e-006 3.00292 -8.02894 -4.95147 -0.697693 160.824 17.2414 8.06673 180 7.0155e-015 178.936 -172.967 39.0892 176.58 -1.26355e-006 7.58239e-007 2.34142 -28.5383 77.4023 32.1286 8.18405 26.4588 -2.10404 -162.102 13.6547 -3.35558 4.5067e-006 -1.99009e-005 -1.29757 12.4453 -39.1418 5.13761 1.26487e-006 1.23493e-006 -3.1806 28.5799 77.4036 -32.1883 -8.10291 28.9257 -0.455376 
